<svg id="Layer_1" data-name="Layer 1" xmlns="http://www.w3.org/2000/svg" viewBox="0 0 129.5 146.54"><defs><style>.cls-1{fill:#fff;}</style></defs><title>paperclip</title><path class="cls-1" d="M599.53,807.42c-2.67-8.59-8-16.11-12.81-23.63l-15.19-23.93c-9.82-15.46-19.3-31.21-29.56-46.38-8.34-12.34-19.14-24.34-34.55-27-14-2.43-27.29,3.84-32.94,17.18-6.79,16.06-.7,32.85,7.45,47.13,10.58,18.54,22.12,36.6,33.19,54.85,3.33,5.49,12,.47,8.63-5l-24.69-40.68c-7-11.48-15.88-23.67-17.42-37.38-1.2-10.7,3.11-23.55,14.74-26.18,13.09-3,24.79,6.28,32.38,15.87,8.69,11,15.61,23.56,23.1,35.36L577,787.19c3.65,5.75,7.64,11.41,10.65,17.54a28.76,28.76,0,0,1,3.3,10.77,16.06,16.06,0,0,1-.16,3.83c-0.63,3.18-1.91,3.22-4.95,3.08-12.6-.59-25.85-7.71-34.8-16.25-11-10.49-17.56-24.8-23.86-38.38q-1.31-2.82-2.57-5.66a28.84,28.84,0,0,0,3.52,4c4.72,4.37,11.8-2.69,7.07-7.07-6.34-5.88-8-14.66-10.63-22.54s-6.27-15.31-13.52-20c-2.39-1.56-5.36-.34-6.84,1.79-4.14,6-2.5,13.11-.21,19.46,3,8.38,6.38,16.65,9.92,24.83,6.68,15.44,13.7,31.51,24.43,44.63a70.47,70.47,0,0,0,38.3,23.8c6.89,1.59,16,3.58,21-2.79C602.16,822.51,601.53,813.85,599.53,807.42Zm-87.11-74.88a49.6,49.6,0,0,1,2.93,7.6A56.37,56.37,0,0,1,512.42,732.54Z" transform="translate(-471.56 -685.97)"/></svg>