<svg id="Layer_1" data-name="Layer 1" xmlns="http://www.w3.org/2000/svg" viewBox="0 0 734.61 435.4"><defs><style>.cls-1{fill:#231f20;}</style></defs><title>resint2</title><path class="cls-1" d="M746.29,273c-14.78,11.45-37.1,11.16-52.14.41C687.08,268.4,681.22,258,671,260.73c-5.15,1.38-9.3,5.81-13.31,9.1L649,277q-1.09-8.17-2-16.37c13.34-22.47,20.24-49.24,21.2-74.85A157.13,157.13,0,0,0,667,159.4c-0.91-6.94-1.52-15.6-6.63-21a12.68,12.68,0,0,0-16.75-1.74c-5.12,3.7-7.83,10.32-9,16.33-2,10.05-1.31,21-1.38,31.24q-0.13,17.25.64,34.49,0.87,19.66,2.94,39.23c-1.27,2-2.57,4.07-4,6-14.71,21-40,38.22-66.05,26.64-30.59-13.62-36.32-51.64-19.1-78.09,2.84-4.35-2.65-9.14-6.84-6.84-13.72,7.54-20.39,21.53-25.56,35.64-2.7,7.38-5,14.92-8.18,22.12-2.92,6.65-8,18.71-16.62,18.72-10.49,0-14.73-13.38-17.1-21.34-2.14-7.19-4.4-18.8-12.24-22.05s-16.5,5-21.24,10.51c-6.09,7-9.61,15.08-11.85,24-1.21,4.83-2.19,10.68-6,14.24-2.74,2.55-7.93,4.53-10,.16-1.55-3.31-.32-8.25,0-11.71,0.43-4.59.54-9.16-.91-13.59A4.94,4.94,0,0,0,407,259a23.66,23.66,0,0,0-6.38-15.19c-5.62-5.82-14.79-8.1-21.87-3.57-7.37,4.72-9.49,14.2-11,22.2-1.9,10-5.92,32.95,2.19,42.27a110,110,0,0,1-19.39,11.08c-6.8,3-14.75,5.94-22.31,4.6C321.71,319.25,317,314.71,314,309a28,28,0,0,1-1.65-3.95c5.72-2.78,11-6.4,14.72-11.71,5.41-7.76,5.87-17.94,5-27.06-0.72-7.31-4.45-15.45-13-15.18-7.26.22-11.85,7.43-14.13,13.5-3.34,8.88-4.53,20.08-4.29,29.51,0,1.74.17,3.49,0.38,5.21-2.12.75-4.27,1.45-6.41,2.14-16.33-15.64-38.39-26.5-59.85-32.74a5.05,5.05,0,0,0-6.33,4.82c-0.18,14.63-.13,30.46-6.94,43.82-5.48,10.75-16.89,20.75-29.72,19.33-8.78-1-16.32-6.83-21.77-14A93.2,93.2,0,0,0,180.41,303a83.61,83.61,0,0,0,5.39-23.39c0.58-6.69,1.13-15.29-2.33-21.36-3.66-6.41-11.23-7.83-17.5-4.47-6.47,3.46-10.11,10.12-12.67,16.71-6.29,16.18-4.48,36,4.13,51.49-2.81,3.13-6.08,5.89-9.86,7.11-6.93,2.23-14.5-.7-20.41-4.3-9.54-5.82-16.49-14.78-22.36-24.11-3-4.78-15.52-29.72-27.5-43.72,25.17-4.23,50.81-16.4,55.67-43.73,2.25-12.63-.27-26.91-9.87-36.07-11.91-11.37-29.08-10.48-43.73-5.72a5.66,5.66,0,0,0-6.71,2.41c-15.36,5.87-31.82,14.45-38,30.32-2.32,6,7.34,8.61,9.64,2.66C48.51,196,60.5,189.87,71,185.36c-1.67,14.55-4,29.07-8.84,42.92a96.75,96.75,0,0,1-9.86,20.27,72.21,72.21,0,0,1-6.86,9.06q-1.84,2.06-3.84,4-1.1,1.05-2.24,2.05c-2.65-1.86-6.78-1.48-7.47,2.54-0.72,4.17,1.38,7.51,5.77,8,4.66,0.5,7.87-2.49,11-5.5a80.3,80.3,0,0,0,9.88-11.52,4.2,4.2,0,0,0,3.6,1.46q1.51-.08,3-0.2c0.46,0.56,1.45,1.38,1.66,1.6,1.08,1.15,2.13,2.34,3.14,3.55a98.48,98.48,0,0,1,6.51,8.87c3.82,5.77,7.23,11.81,10.63,17.84,6.69,11.88,13.45,24.1,23.17,33.82,10.13,10.12,26,19.5,40.71,14.36a34.09,34.09,0,0,0,12.26-7.88,47.18,47.18,0,0,0,18.92,13.92c16.4,6.48,33.46-1.86,43.52-15.19,10.53-13.95,12.15-31.89,12.55-49a146,146,0,0,1,41.42,21.84c1.29,1,2.81,2,4.35,3.21-0.56.26-1.11,0.51-1.65,0.79C270.6,312.22,260.49,323,262.94,337a5,5,0,0,0,4.82,3.67c10.82-.79,22.69-2.13,30-11.19,5-6.22,5.85-13.45,3-19.87l2.41-.83a37.07,37.07,0,0,0,5.31,10c12.47,16.6,32.73,12.38,49.11,4.63a111.46,111.46,0,0,0,23.54-14.81c0.58,0,1.17-.12,1.79-0.22,9.26-1.52,16-7.7,20.61-15.61a14.57,14.57,0,0,0,17.23,6.81c9.16-2.7,13.65-11.12,16-19.74,2.69-10,5.24-18.81,12.86-26.25a26.16,26.16,0,0,1,5.43-4.44c3.06-1.65,3.54,0,4.84,2.78,2.31,4.95,3.46,10.39,5.13,15.57,3,9.36,8,18.59,17.42,22.8,19.56,8.78,30.79-14.67,36.38-29.22,3.28-8.54,5.93-18.3,10-27-3.49,22,3.88,45,22.87,59.17a54.84,54.84,0,0,0,42.37,10.25c14.9-2.66,28.05-11.87,38.12-22.85q3.33-3.64,6.35-7.56,0.92,7.31,2,14.6c0.6,4.11,5.83,4.28,8.36,2.21L664,277.52c2.42-2,4.79-4.45,7.48-6.06s4.38-1,6.68.92c3.6,3,6.54,6.55,10.36,9.32a51.74,51.74,0,0,0,12.6,6.56,54.88,54.88,0,0,0,52.22-8.14C758.45,276.18,751.32,269.15,746.29,273ZM81.44,181.21c11-3.76,23.79-5.72,33.25,1.81,8,6.4,10.21,17.83,8.62,27.52-1.92,11.68-9.12,20.85-19.09,27-11.11,6.81-24.13,9.64-37,10.74a9.45,9.45,0,0,0-2.64-.81q0.95-1.75,1.82-3.54C76,224.29,79.13,202.69,81.44,181.21ZM64.91,258c-1.23,1-.63-1.45,0,0h0Zm96.44,19.89c1.45-5.15,4.15-13.32,9.69-15.43,6.32-2.41,5.11,10.48,5,14A73.85,73.85,0,0,1,164.13,313l-0.08-.16A51.91,51.91,0,0,1,161.35,277.84ZM291.45,321c-3.45,6.91-11.51,8.6-18.84,9.32,1.14-6.43,7.49-11.39,12.89-14.46a51.37,51.37,0,0,1,5.86-2.82A8.3,8.3,0,0,1,291.45,321Zm19.31-33.4c0.52-6.9,1.23-15.25,4.32-21.56,0.63-1.29,2.42-5,4.25-4.94,2.49,0.06,2.7,4.87,2.83,6.56,0.54,7.17.62,15.32-4.15,21.18a27.06,27.06,0,0,1-7.39,6.18A61.52,61.52,0,0,1,310.76,287.59Zm64.68,3.55A117.59,117.59,0,0,1,377,267c0.93-5.42,1.84-15.43,7.3-18.46,7.12-3.95,12.07,5.8,12.45,11.34,0.87,12.77-6.34,25.42-14.82,34.41-1.33,1.41-2.73,2.75-4.16,4.06C375.45,297,375.53,293.64,375.44,291.14ZM643.23,182.29c0.08-8.21-.13-16.67.74-24.85,0.38-3.54,2-11.71,6.08-13.08,7.87-2.62,8.31,31.73,8.29,36.24a152.93,152.93,0,0,1-13.06,61.33Q642.93,212.18,643.23,182.29Z" transform="translate(-26.07 -134.3)"/><path class="cls-1" d="M746,494.71a449.4,449.4,0,0,0-27.75-38c-2.26-2.79-7.78-1.35-8.36,2.21A74.91,74.91,0,0,1,689,500.14c-9.35,9.33-27.4,22.87-39.26,10.11-6.76-7.27-8.8-17.72-9.3-27.82a151.58,151.58,0,0,0,7.31-26.85,50.72,50.72,0,0,0,22.43-6.23c5.63-3.11.6-11.75-5-8.63a40.2,40.2,0,0,1-16,4.82,147.3,147.3,0,0,0-.53-35.92c-0.7-5.06-8.5-4.46-9.64,0a279.49,279.49,0,0,0-6.52,34,40.31,40.31,0,0,1-15.35-9.11c-4.66-4.44-11.74,2.62-7.07,7.07a50.8,50.8,0,0,0,21.34,12.09c-0.28,3.16-.53,6.33-0.7,9.5-0.32,5.86-.54,11.81-0.29,17.73q-1.56,3.93-3.35,7.77c-2.11-5.94-5.59-11.06-11.76-13.83-10.5-4.72-23.14-4.92-34.31-7.34-10.18-2.2-20.6-5.5-27.06-13.66a49.77,49.77,0,0,0-2.8-4.3c-3.75-5.12-11.65-.78-8.63,5a36.1,36.1,0,0,0,3.12,5c9.26,17.3,4.73,38.51-4.35,55.38-5.19,9.64-12.14,19.43-21.26,25.73-8.35,5.77-20.65,8.7-29.52,2.19a17.55,17.55,0,0,1-4.23-4.46c1.15-1.22,2.24-2.46,3.27-3.72,7.61-9.26,17.43-22.28,16.74-35-0.78-14.37-18-17.5-26.74-7.51-4.78,5.49-6,12.87-6.87,19.86a62.34,62.34,0,0,0,.52,20.14,33.79,33.79,0,0,0,1.08,3.89c-4.24,3.48-9.11,6.05-14.54,6.25-12.35.45-21.32-12.15-27-21.56a84,84,0,0,1-11.79-38,5.08,5.08,0,0,0-6.33-4.82c-9.13,2.07-15.59,9.29-19.37,17.55-4.37,9.54-5,20.79-10.84,29.64-8.53,12.85-26.8,16.12-40.64,11.2-13-4.61-20.4-16.7-22.38-29.69,11.07-1.21,22.55-3,31.71-9.7a28.4,28.4,0,0,0,11.71-25.27c-0.89-9.88-7.89-18.13-18.19-18.71-11.07-.62-20.89,7.39-26.75,16.08a54.13,54.13,0,0,0-8.53,22.81,5.08,5.08,0,0,0-6.65,1.67c-6.23,9.17-14.37,21-27,20.27-13.48-.79-12.55-16.64-12.34-26.44l0.69-31a159.23,159.23,0,0,0,32.36-1.34c6.35-.89,3.65-10.53-2.66-9.64a145.49,145.49,0,0,1-29.48,1l1.08-48.57c0.13-5.74-8.21-6.66-9.82-1.33A617.23,617.23,0,0,1,220.4,490.8q-5.48,11.12-11.41,22c-1.7,3.12-3.2,6.68-5.37,9.52s-3.52,2.28-5.3-.29c-4.18-6-4.31-15.12-5.58-22.11l-5-27.52c-0.74-4.1-5.73-4.29-8.36-2.21a99.62,99.62,0,0,0-30.29,40.65L141,459.46c-0.64-4.07-5.81-4.34-8.36-2.21L110.52,475.7c-2.71-13-5.72-25.92-8.87-38.81q-3-12.31-6.16-24.6c-1.51-6-2.68-12.61-6.71-17.51-9.45-11.48-26.55-1-36.74,4.14-5.74,2.9-.69,11.53,5,8.63a145.42,145.42,0,0,1,14.28-6.38c4.82-1.82,8.67-2.92,11.18,2.43,1.92,4.08,2.66,8.88,3.76,13.23q2,8,4,16.08c5.41,21.76,10.52,43.61,14.46,65.69,1.8,10.08,4.05,21.07.32,31-3,8-9.56,14.26-16.67,18.79-11,7-34,18-45.78,7.19-6.36-5.81-7.76-19-6.37-27.07,2.47-14.36,16.49-7.2,24.05-1.32,5,3.91,12.15-3.12,7.07-7.07-8.69-6.76-21-14.56-32-7.94-9.3,5.6-10.18,17.64-9,27.34C27.75,550.59,31.2,562,42.1,567c9.64,4.44,21.16,2.74,30.91-.46,21.17-6.95,42.22-21.43,44-45.49,0.9-12.18-2.22-25-4.76-37.05a5,5,0,0,0,5-.94l15.36-12.83L143,535.9c0.75,4.75,8.93,4.8,9.64,0a91.45,91.45,0,0,1,27-52.6l3,16.33c1.33,7.31,1.95,15.26,4.61,22.23,3.69,9.67,14.33,17.81,23.11,8.11,4.48-4.95,7.28-11.94,10.39-17.78q5.6-10.54,10.78-21.3,9.85-20.44,18.22-41.55,3.63-9.13,7-18.38l-0.49,21.88-0.61,27.56c-0.16,7.35-.71,14.8.35,22.11,2,13.43,12.14,22.64,26,21,13.08-1.53,21.72-11.28,28.91-21.42a51.63,51.63,0,0,0,9.39,28.23c11.71,16.14,33.45,22.16,52.15,15.53,10.9-3.86,19.44-11.44,24-22.12,4.31-10.17,5.37-27,15.34-33.77a93.83,93.83,0,0,0,12.86,36.55c7.27,11.84,17.72,24.47,32.53,25.73,8.1,0.69,15.53-2.49,21.88-7.27a29.37,29.37,0,0,0,21.73,11.43c14.8,1,27.83-7.85,37-18.7,14.79-17.45,26.19-43.22,22.43-66.48,13.2,6.45,29.86,7.67,43.71,10.56,3.23,0.67,7,1.36,9.72,3.46,3,2.34,3.95,6,4.74,9.5,0.55,2.45,1.07,4.94,1.5,7.45a137.45,137.45,0,0,1-28.47,33.49c-1.92,1.63-2,5.45,0,7.07,8.41,6.92,19.58,5.78,28-.59,10.52-7.93,12.57-21.43,11.26-33.82-0.14-1.31-.28-2.66-0.44-4q1.49-2.62,2.89-5.29c0.51,1.79,1.09,3.56,1.78,5.31,4.37,11.09,12.69,20.37,25.23,21.14,14.45,0.89,28.79-10.43,38.08-20.44a84.51,84.51,0,0,0,19.12-33.56q8.94,11.55,17.07,23.69c3.39,5.07,6.7,10.21,9.85,15.44s7,11.37,6.31,17.75c-0.38,3.59-3.6,8.05-7.7,7.79-3.61-.23-4.42-4.89-5.16-7.76-1.69-6.56-3.46-14.88-11.47-16-6.29-.88-9,8.75-2.66,9.64,3.6,0.51,3.74,6.12,4.49,9,1.17,4.53,2.8,9.19,6.56,12.22,8.73,7,21.72.07,25-9.49C764.25,520,753.09,505.58,746,494.71ZM320.9,496.54a44.66,44.66,0,0,1,8.35-23.62c4.46-6,15.6-14.67,22.7-7.47,5.42,5.49,2.92,15.77-1.79,20.84C343,494,331,495.59,320.9,496.66,320.9,496.62,320.9,496.58,320.9,496.54Zm161.56,31a57.77,57.77,0,0,1-.12-12.65c0.43-5,.91-11.28,4.07-15.41,2.77-3.61,9.42-5.38,9.88.77,0.67,8.93-7.76,19.56-12.91,26.13Zm130.85,6.7a16.25,16.25,0,0,1-9.22,3.35,143,143,0,0,0,16.79-19C620.38,524.66,618.34,530.55,613.32,534.29Z" transform="translate(-26.07 -134.3)"/></svg>