<svg xmlns="http://www.w3.org/2000/svg" viewBox="0 0 895.47 204.93"><defs><style>.cls-1{fill:none;stroke:#231f20;stroke-miterlimit:10;}.cls-2{fill:#231f20;}</style></defs><title>Asset 1</title><g id="Layer_2" data-name="Layer 2"><g id="Layer_1-2" data-name="Layer 1"><path class="cls-1" d="M549.56,201.87"/><path class="cls-2" d="M45.83,43.72,60.36,143c1.15,7.85,2.57,15.72,3.36,23.62.66,6.61,1,14.39-3.46,19.88-3.71,4.61-9.78,6.37-15.38,7.35s-12.21,1.8-17.84.92c-8.46-1.31-8.23-12.76-8.53-19.5a83.46,83.46,0,0,1,3.32-27c1.79-6.19-7.86-8.84-9.64-2.66A92.87,92.87,0,0,0,8.45,173.4c.18,7.71.53,17.55,5,24.18,4,5.94,11.15,7.41,17.87,7.36,7.2-.06,14.86-.65,21.78-2.75s13-5.89,16.77-12c4.18-6.74,4.65-15.09,4-22.78-1.74-19.23-5.45-38.44-8.25-57.54L55.48,41.06c-.93-6.34-10.57-3.65-9.64,2.66Z"/><path class="cls-2" d="M25.52,100.28c-7.15-6.26-13.12-14-15-23.5C8.9,68.14,11,59.06,15,51.35,24.27,33.6,41.94,24,60.78,19.33a202.93,202.93,0,0,1,30.68-4.74c9.11-.84,20.93-2.72,27.48,5.33,5.89,7.24,8.92,18.14,10.4,27.19,1.54,9.44,1,19.71-3.35,28.37C118.7,90,96.31,98.83,83.88,85.38c-4.38-4.74-11.44,2.35-7.07,7.07,13.59,14.7,37.62,10.83,50.87-2.32C144.5,73.44,141.86,46,133.49,26,128.77,14.7,121.89,6,109.13,4.29c-11.67-1.55-24.42.72-36,2.45C49,10.38,24.7,19.16,10.21,40,3.43,49.71-.85,61.88.14,73.85c1.11,13.38,8.36,24.79,18.31,33.5,4.82,4.22,11.92-2.82,7.07-7.07Z"/><path class="cls-2" d="M73.1,190.16c36,1.37,66.12-33.44,61.28-68.65-.76-5.54-10.27-4.28-9.82,1.33,1.29,16.23-3.73,33.78,2.43,49.39,4.56,11.57,15.65,22.85,29,21.76,15-1.23,22.15-16.58,26.53-29A120.84,120.84,0,0,0,188.77,115L179,116.36c6.84,17.37.18,37.3,10.21,53.88,8.36,13.83,25.11,17,38,7.37,14.55-10.93,20.29-29.25,24.63-46.09a288,288,0,0,0,9-65.19c.36-15.93,1-40.41-19-44.83-21-4.65-22.67,21.92-23.85,35.9a312.57,312.57,0,0,0,1.7,67.36c2.42,18.14,4.62,41.74,18.94,55,12.42,11.48,35,12.77,42.59-4.91,6.44-15.1-2.1-33.87-13.55-44.12l-4.86,8.36c14.12,4.74,27.16-3.68,35.66-14.54,10.31-13.17,15.26-30.17,18.43-46.36,3.37-17.21,4.62-35.46,2.13-52.87-1.64-11.49-9-26.36-23.11-23-12,2.86-15,17.89-14.92,28.36.13,19.08,2.71,38.47,4.52,57.45s3.36,37.87,6.26,56.58c2.16,13.94,9.94,26,25,27,13.82,1,28.25-7.45,34.6-19.67,8.93-17.19,6.07-37.15,3.1-55.47-.79-4.86-8.71-4.68-9.64,0-3.37,16.82-5.28,34.22-4.53,51.39.55,12.63,5.81,26.58,20.45,27.2,13.1.56,23.59-9.44,28-21,5.24-13.65,3.18-29.33,9.91-42.48,3-5.78,8-11.44,15-10.87,5.39.43,10.91,3.78,10.29,9.71-.66,6.39,9.34,6.35,10,0,1.17-11.23-9.52-18.89-19.73-19.66-12.5-.94-21.56,8.88-26,19.6-5.64,13.7-3.47,29.6-10,42.91C373,164,355.64,171.72,351.35,156c-2.22-8.09-1.33-17.41-.9-25.68a216.23,216.23,0,0,1,4-31.14h-9.64c3.5,21.54,7.14,56-21.2,62-12,2.55-19.39-4.67-21.7-16.08-3-14.81-3.79-30.37-5.3-45.39q-2.35-23.33-4.15-46.72c-.86-11.21-3.94-25,.72-35.73,1.35-3.12,3.85-6.25,7.67-5.34,5,1.18,6.88,7.93,7.83,12.21,3,13.42,1.87,28.81,0,42.31-2.06,15.17-5.78,31.67-13.52,45-6,10.31-16.63,22.31-29.79,17.89-4.68-1.57-8.54,5.06-4.86,8.36,7.93,7.1,14.61,19.09,12.41,30.08-2.78,13.92-19.56,12.34-27.81,4.32-11.18-10.86-12.94-30.11-15.11-44.68a302.89,302.89,0,0,1-3.06-52.93q.38-13.36,1.91-26.66c.6-5.25,1.05-15.69,7.89-16.82,7.21-1.18,11.71,6.69,13,12.49,1.79,7.91,1.2,16.61,1,24.66a275,275,0,0,1-6.6,52.32c-3.3,14.63-6.83,30.48-16.34,42.5-3.92,4.95-9.36,10-16,10.44-7.08.45-12.38-4.65-15.27-10.61-7.42-15.27-1.73-33.41-7.93-49.17-1.88-4.79-10.33-4.78-9.82,1.33a113.36,113.36,0,0,1-3.69,40.3c-2.68,9.51-7.37,26.79-19.09,28.65-10.82,1.71-19.13-10.86-21.06-19.91-2.87-13.46.71-27.6-.38-41.22l-9.82,1.33c4,29.07-22.8,57.09-51.63,56-6.44-.24-6.43,9.76,0,10Z"/><path class="cls-2" d="M376.18,152.33c2.11,2.93,1.14,7.1,2.09,10.51a18.75,18.75,0,0,0,5.06,8.32c4.66,4.5,11.16,6.76,17.5,7.39,14.65,1.44,28.94-5.34,39.67-14.85,11.72-10.38,18.44-23.65,24.26-37.89,2.44-6,5.75-14.17,12.28-16.69,3.77-1.46,12.2-1.13,12.71,4.28.6,6.35,10.61,6.41,10,0-1.26-13.24-16.54-18.13-27.6-13-14.29,6.59-16.8,25.39-23.85,37.74-7.63,13.37-19.61,25.62-34.94,29.48-6.78,1.71-14.93,2-21-2-6.86-4.49-3.23-12.33-7.52-18.29-3.73-5.17-12.41-.19-8.63,5Z"/><path class="cls-2" d="M436,159.47c-.36,19.61,23.37,27.32,39.2,21.56,22.66-8.26,25.92-37.33,27.42-57.88h-10c1.33,15.24,4.41,31.78,17.24,41.69,11.19,8.64,26.91,9.27,36.95-1.52s11.88-26.71,13.7-40.65a340.16,340.16,0,0,0,2.67-55.79A350.8,350.8,0,0,0,555.1,3.58c-1-4.74-8.63-4.79-9.64,0a261.94,261.94,0,0,0-.05,108.7,251.08,251.08,0,0,0,7.07,26.21c2.3,7,4.41,15.56,9.54,21.11,10.93,11.82,26.28,1.68,32.93-9.25,9.88-16.24,9-39.41,3.79-57-1.31-4.47-8.65-5-9.64,0a279.21,279.21,0,0,0-5.34,56.74c.16,14.63-.25,33.57,17.9,36.65,13.62,2.31,26.49-5.49,34.55-16a49.71,49.71,0,0,0,9.25-40.48c-.8-3.86-5.76-4.6-8.36-2.21C618.71,145,625.93,180,649.84,187.81c14,4.6,29.48-1.69,39-12.28a42.18,42.18,0,0,0,9.35-40.69c-7.94-26.76-39.69-47.91-66.93-36-5.32,2.32-10.31,6-13.11,11.19-2.7,5-4.15,13.08,1,16.93,13,9.83,30.53,1.33,41.12-8,6.74-6,13-13.34,21.36-17s17.46-1.5,24.58,4c17.5,13.44,16.76,37.79,16.19,57.65l9.82-1.33A87.51,87.51,0,0,1,742.14,100l-5.65,2.3c15.06,4,10.75,27.13,11.46,38.38.92,14.71,8.55,28.15,24.44,29.5,13.61,1.16,27.45-6.71,35.43-17.38,10.48-14,14-31.68,23-46.53l-7.85,1c13.58,11.13,31.66,16.72,43.31,30.16,5.08,5.87,9.27,14.18,6.81,22.06-2.16,6.94-8.86,13.41-16.53,11.3l3,2.3c-8.88-16.81,8.73-34.36,18.63-46.12C889,114.17,899.95,97.55,893.6,80.27c-2.2-6-11.87-3.4-9.64,2.66,6.06,16.5-8.16,31.59-18.18,43.06-9.83,11.25-20.3,26.06-18.24,41.84a26.07,26.07,0,0,0,3.05,9.58c1.9,3.31,5.72,3.89,9.31,3.85,6.76-.08,13-3.79,17.29-8.9,10.08-12.16,7.36-27.93-1.87-39.69-11.86-15.13-30.76-20.65-45.23-32.51-2.49-2-6.06-2-7.85,1-8.45,13.94-12,30.35-21.16,43.88-6.44,9.53-20,18.32-32,14.33-14.73-4.92-10.66-24.87-11.25-36.63-.62-12.42-5.45-26.58-18.72-30.15a5.1,5.1,0,0,0-5.65,2.3,98.15,98.15,0,0,0-10.94,69.89c1.22,5.66,9.66,4.16,9.82-1.33.45-15.63.7-31.84-5.51-46.5-5-11.84-15.09-22.23-27.69-25.79-13.41-3.79-25.35,2.16-35.32,10.83-9.18,8-19.76,21.21-33.56,19.08-1.26-.19-3.67-.55-4.47-1.62.38.5-.1-.63,0-1.38a10.78,10.78,0,0,1,2.84-5.7c3.33-3.67,8.43-5.53,13.17-6.48,11.9-2.37,23.72,2.75,32.61,10.53,9.59,8.38,16.48,20.51,15.56,33.56-.84,12-9.79,23.1-20.81,27.46-12,4.77-24.51-.24-29.85-11.95-4.58-10-3.55-22.64,4.8-30.34L635.8,133a39.5,39.5,0,0,1-7,31.13c-5.83,8-16.48,15.48-26.86,12.52-6.2-1.77-7.31-7.26-7.7-13.07-.5-7.35-.6-14.74-.44-22.1A265.44,265.44,0,0,1,598.73,96h-9.64A76.25,76.25,0,0,1,592,124.9c-.82,8.66-2.8,18-8.81,24.61-5.49,6.06-12.35,7.65-16.33-.7s-6.49-17.91-8.87-26.87A250,250,0,0,1,555.1,6.24h-9.64A334.43,334.43,0,0,1,549.9,127c-1.81,12.21-5.11,34.29-21.39,34.63C509,162,503.92,138,502.62,123.15a5,5,0,0,0-10,0c-1.13,15.49-2.58,39-18.31,47.4-9.37,5-28.56,2.44-28.31-11.08.12-6.44-9.88-6.44-10,0Z"/><path class="cls-2" d="M589.39,54.39c6.43,0,6.45-10,0-10s-6.45,10,0,10Z"/><path class="cls-2" d="M517.27,50.19a76,76,0,0,0,65.9-9.7c5.26-3.63.27-12.3-5-8.63a66.42,66.42,0,0,1-58.19,8.69c-6.14-2-8.77,7.68-2.66,9.64Z"/><path class="cls-2" d="M345.94,64.22c6.43,0,6.45-10,0-10s-6.45,10,0,10Z"/></g></g></svg>